inDegrees=yes
name=ik_data_2024_11_06_17_43
DataType=double
version=3
OpenSimVersion=4.5.1
endheader
time	pelvis_tilt	pelvis_list	pelvis_rotation	pelvis_tx	pelvis_ty	pelvis_tz	hip_flexion_r	hip_adduction_r	hip_rotation_r	knee_angle_r	knee_angle_r_beta	ankle_angle_r	subtalar_angle_r	mtp_angle_r	hip_flexion_l	hip_adduction_l	hip_rotation_l	knee_angle_l	knee_angle_l_beta	ankle_angle_l	subtalar_angle_l	mtp_angle_l	lumbar_extension	lumbar_bending	lumbar_rotation	arm_flex_r	arm_add_r	arm_rot_r	elbow_flex_r	pro_sup_r	wrist_flex_r	wrist_dev_r	arm_flex_l	arm_add_l	arm_rot_l	elbow_flex_l	pro_sup_l	wrist_flex_l	wrist_dev_l
22.485	-4.066500863049583	-4.850266013558808	133.2493511125569	0	0.9399999999999999	0	-26.38781933541366	29.98645611490619	-39.978529693882	0.00682886421074668	0.0001191861646491335	-3.947917152600409	0	0	0.9972891162132494	6.219894139358881	-12.17558901406788	0.5179071059480248	0.009039184218268142	-3.947917152600409	0	0	0	0	0	0	-3.154314199444757	0	36.53974298910693	32.38926964545888	0	0	0	-3.154314199444757	0	36.53974298910693	32.38926964545888	0	0
22.62	-4.312639865807168	-5.087398381083013	133.0352547963631	0	0.9399999999999999	0	-26.41043992586213	29.9869392397904	-39.97848199534684	0.006930911081908514	0.000120967218542266	-3.950927349251441	0	0	1.022887313125066	6.552856802544017	-12.38555653732459	0.5093803562480997	0.00889036436151101	-3.950927349251441	0	0	0	0	0	0	-3.158223935093773	0	36.57267718295711	32.41307277533811	0	0	0	-3.158223935093773	0	36.57267718295711	32.41307277533811	0	0
22.74	-4.142995004319357	-4.941330667423713	133.2956353365541	0	0.9399999999999999	0	-26.38990052922075	29.98656653163656	-39.97818279749424	0.006801493816525329	0.0001187084611524021	-3.953967522388717	0	0	1.031226384123541	6.333293816716091	-12.13393652012662	0.5454951125766822	0.009520685768000232	-3.953967522388717	0	0	0	0	0	0	-3.16257159777177	0	36.60767569114715	32.43762380198893	0	0	0	-3.16257159777177	0	36.60767569114715	32.43762380198893	0	0
22.875	-4.041224698982533	-4.810064597368608	133.2255892405123	0	0.9399999999999999	0	-26.25684880177903	29.98641573513408	-39.97860420726933	0.006766750772290716	0.0001181020806383421	-3.956287007807785	0	0	1.01875334852971	6.15839213573022	-12.20989403743685	0.5551269905554893	0.009688793751880753	-3.956287007807785	0	0	0	0	0	0	-3.165656911161376	0	36.63338700445711	32.45606880173744	0	0	0	-3.165656911161376	0	36.63338700445711	32.45606880173744	0	0
23.01	-3.803853263150991	-4.5769902402779	133.7219882810182	0	0.9399999999999999	0	-26.28194907959086	29.98573436371719	-39.97790192034662	0.006687363686323822	0.000116716514604656	-3.961664604920858	0	0	0.9540805144723405	5.845951926890059	-11.72058199597602	0.5334141673523956	0.009309833497083347	-3.961664604920858	0	0	0	0	0	0	-3.174132417269145	0	36.6983739116552	32.50034809208471	0	0	0	-3.174132417269145	0	36.6983739116552	32.50034809208471	0	0
23.13	-3.679835713546108	-4.453916978622186	134.0523117321998	0	0.9399999999999999	0	-26.30392798027269	29.98530994593636	-39.97727027142166	0.006696554920160989	0.0001168769318974352	-3.96487059136432	0	0	0.9170536125080171	5.67363279908416	-11.40268839174713	0.5351142810755578	0.009339506079210866	-3.96487059136432	0	0	0	0	0	0	-3.179099358652848	0	36.73678202461369	32.52665634669847	0	0	0	-3.179099358652848	0	36.73678202461369	32.52665634669847	0	0
23.265	-3.728444719605392	-4.505320393382501	133.9132962285886	0	0.9399999999999999	0	-26.3161894043085	29.98556114929649	-39.97749706050996	0.006756557334576614	0.000117924171588134	-3.9671620871912	0	0	0.9380316306076759	5.743778155206622	-11.53586260410889	0.5401309282013983	0.009427063088967494	-3.9671620871912	0	0	0	0	0	0	-3.182148344848604	0	36.76218463150801	32.54488325725544	0	0	0	-3.182148344848604	0	36.76218463150801	32.54488325725544	0	0
23.4	-3.756067109807196	-4.508979624443909	133.7649773703967	0	0.9399999999999999	0	-26.24137987495943	29.98564630296173	-39.97787642930878	0.006834779016884849	0.0001192893974908617	-3.969576651313943	0	0	0.9332837031215425	5.75979462679136	-11.6900748497736	0.5333376711157712	0.009308498385888868	-3.969576651313943	0	0	0	0	0	0	-3.185364146530583	0	36.78896626316767	32.56409461104723	0	0	0	-3.185364146530583	0	36.78896626316767	32.56409461104723	0	0
